<svg id="visual" viewBox="0 0 900 600" width="900" height="600" xmlns="http://www.w3.org/2000/svg" xmlns:xlink="http://www.w3.org/1999/xlink" version="1.1"><path d="M0 536L18.8 537C37.7 538 75.3 540 112.8 516.2C150.3 492.3 187.7 442.7 225.2 419.2C262.7 395.7 300.3 398.3 337.8 395.3C375.3 392.3 412.7 383.7 450.2 381.5C487.7 379.3 525.3 383.7 562.8 398.3C600.3 413 637.7 438 675.2 468.2C712.7 498.3 750.3 533.7 787.8 548.2C825.3 562.7 862.7 556.3 881.3 553.2L900 550L900 601L881.3 601C862.7 601 825.3 601 787.8 601C750.3 601 712.7 601 675.2 601C637.7 601 600.3 601 562.8 601C525.3 601 487.7 601 450.2 601C412.7 601 375.3 601 337.8 601C300.3 601 262.7 601 225.2 601C187.7 601 150.3 601 112.8 601C75.3 601 37.7 601 18.8 601L0 601Z" fill="#28402e"></path></svg>