<svg id="visual" viewBox="0 0 900 600" width="900" height="600" xmlns="http://www.w3.org/2000/svg" xmlns:xlink="http://www.w3.org/1999/xlink" version="1.1"><path d="M0 526L15 497.5C30 469 60 412 90 394.7C120 377.3 150 399.7 180 423.2C210 446.7 240 471.3 270 484.7C300 498 330 500 360 476.3C390 452.7 420 403.3 450 406.2C480 409 510 464 540 463C570 462 600 405 630 396.5C660 388 690 428 720 454.8C750 481.7 780 495.3 810 508.3C840 521.3 870 533.7 885 539.8L900 546L900 601L885 601C870 601 840 601 810 601C780 601 750 601 720 601C690 601 660 601 630 601C600 601 570 601 540 601C510 601 480 601 450 601C420 601 390 601 360 601C330 601 300 601 270 601C240 601 210 601 180 601C150 601 120 601 90 601C60 601 30 601 15 601L0 601Z" fill="#59a37f"></path></svg>