<svg id="visual" viewBox="0 0 900 600" width="900" height="600" xmlns="http://www.w3.org/2000/svg" xmlns:xlink="http://www.w3.org/1999/xlink" version="1.1"><path d="M0 356L25 381.7C50 407.3 100 458.7 150 487.7C200 516.7 250 523.3 300 529.2C350 535 400 540 450 521C500 502 550 459 600 445C650 431 700 446 750 442.2C800 438.3 850 415.7 875 404.3L900 393L900 601L875 601C850 601 800 601 750 601C700 601 650 601 600 601C550 601 500 601 450 601C400 601 350 601 300 601C250 601 200 601 150 601C100 601 50 601 25 601L0 601Z" fill="#006735"></path></svg>