<svg id="visual" viewBox="0 0 900 600" width="900" height="600" xmlns="http://www.w3.org/2000/svg" xmlns:xlink="http://www.w3.org/1999/xlink" version="1.1"><g transform="translate(436.41191698157 283.372830271372)"><path d="M196.3 -206.8C253.7 -185.7 299.2 -123.3 303 -59.6C306.9 4 269 68.7 223.8 112.4C178.5 156 125.9 178.6 68.9 207.1C11.9 235.5 -49.5 270 -115.8 267.7C-182.1 265.5 -253.4 226.5 -271.2 169.3C-289.1 112.2 -253.3 36.9 -238.5 -41.2C-223.7 -119.3 -229.8 -200.2 -193.5 -225.1C-157.3 -249.9 -78.6 -218.7 -4.6 -213.2C69.4 -207.7 138.8 -228 196.3 -206.8" fill="#c6ffab"></path></g></svg>