<svg id="visual" viewBox="0 0 900 600" width="900" height="600" xmlns="http://www.w3.org/2000/svg" xmlns:xlink="http://www.w3.org/1999/xlink" version="1.1"><g stroke-width="1" stroke-linejoin="bevel"><path d="M515 316L533 436L587 327Z" fill="#1d7431" stroke="#1d7431"></path><path d="M533 436L574 434L587 327Z" fill="#274a30" stroke="#274a30"></path><path d="M515 316L470 474L533 436Z" fill="#274a30" stroke="#274a30"></path><path d="M533 436L575 526L574 434Z" fill="#235f32" stroke="#235f32"></path><path d="M470 474L575 526L533 436Z" fill="#255431" stroke="#255431"></path><path d="M733 428L688 293L587 327Z" fill="#0e9529" stroke="#0e9529"></path><path d="M733 428L587 327L574 434Z" fill="#216932" stroke="#216932"></path><path d="M478 181L421 232L515 316Z" fill="#255431" stroke="#255431"></path><path d="M421 232L382 300L515 316Z" fill="#274a30" stroke="#274a30"></path><path d="M515 316L366 439L470 474Z" fill="#0e9529" stroke="#0e9529"></path><path d="M478 181L515 316L621 161Z" fill="#02ab1b" stroke="#02ab1b"></path><path d="M382 300L366 439L515 316Z" fill="#0e9529" stroke="#0e9529"></path><path d="M470 474L494 600L575 526Z" fill="#0e9529" stroke="#0e9529"></path><path d="M366 439L391 490L470 474Z" fill="#274a30" stroke="#274a30"></path><path d="M685 539L733 428L574 434Z" fill="#148a2d" stroke="#148a2d"></path><path d="M621 161L515 316L587 327Z" fill="#235f32" stroke="#235f32"></path><path d="M575 526L685 539L574 434Z" fill="#197f2f" stroke="#197f2f"></path><path d="M688 293L621 161L587 327Z" fill="#216932" stroke="#216932"></path><path d="M402 600L494 600L470 474Z" fill="#07a023" stroke="#07a023"></path><path d="M575 526L612 600L685 539Z" fill="#148a2d" stroke="#148a2d"></path><path d="M494 600L612 600L575 526Z" fill="#1d7431" stroke="#1d7431"></path><path d="M766 518L777 412L733 428Z" fill="#274a30" stroke="#274a30"></path><path d="M733 428L777 412L688 293Z" fill="#02ab1b" stroke="#02ab1b"></path><path d="M688 293L736 174L621 161Z" fill="#1d7431" stroke="#1d7431"></path><path d="M777 412L780 291L688 293Z" fill="#07a023" stroke="#07a023"></path><path d="M366 439L320 502L391 490Z" fill="#235f32" stroke="#235f32"></path><path d="M391 490L402 600L470 474Z" fill="#28402e" stroke="#28402e"></path><path d="M262 387L320 502L366 439Z" fill="#28402e" stroke="#28402e"></path><path d="M612 600L671 600L685 539Z" fill="#1d7431" stroke="#1d7431"></path><path d="M685 539L766 518L733 428Z" fill="#07a023" stroke="#07a023"></path><path d="M766 600L766 518L685 539Z" fill="#197f2f" stroke="#197f2f"></path><path d="M320 502L402 600L391 490Z" fill="#1d7431" stroke="#1d7431"></path><path d="M736 174L639 119L621 161Z" fill="#28402e" stroke="#28402e"></path><path d="M621 161L480 77L478 181Z" fill="#255431" stroke="#255431"></path><path d="M296 163L275 315L382 300Z" fill="#1d7431" stroke="#1d7431"></path><path d="M382 300L262 387L366 439Z" fill="#235f32" stroke="#235f32"></path><path d="M296 163L382 300L421 232Z" fill="#216932" stroke="#216932"></path><path d="M784 206L736 174L688 293Z" fill="#216932" stroke="#216932"></path><path d="M275 315L262 387L382 300Z" fill="#148a2d" stroke="#148a2d"></path><path d="M480 77L381 138L478 181Z" fill="#28402e" stroke="#28402e"></path><path d="M478 181L381 138L421 232Z" fill="#148a2d" stroke="#148a2d"></path><path d="M900 302L784 206L780 291Z" fill="#235f32" stroke="#235f32"></path><path d="M780 291L784 206L688 293Z" fill="#274a30" stroke="#274a30"></path><path d="M639 119L480 77L621 161Z" fill="#274a30" stroke="#274a30"></path><path d="M320 502L326 600L402 600Z" fill="#0e9529" stroke="#0e9529"></path><path d="M167 600L326 600L320 502Z" fill="#197f2f" stroke="#197f2f"></path><path d="M671 600L766 600L685 539Z" fill="#28402e" stroke="#28402e"></path><path d="M900 492L900 388L777 412Z" fill="#255431" stroke="#255431"></path><path d="M296 163L235 292L275 315Z" fill="#274a30" stroke="#274a30"></path><path d="M275 315L235 292L262 387Z" fill="#28402e" stroke="#28402e"></path><path d="M296 83L296 163L381 138Z" fill="#235f32" stroke="#235f32"></path><path d="M381 138L296 163L421 232Z" fill="#28402e" stroke="#28402e"></path><path d="M736 174L696 61L639 119Z" fill="#28402e" stroke="#28402e"></path><path d="M639 119L594 0L480 77Z" fill="#255431" stroke="#255431"></path><path d="M817 116L696 61L736 174Z" fill="#0e9529" stroke="#0e9529"></path><path d="M900 492L777 412L766 518Z" fill="#197f2f" stroke="#197f2f"></path><path d="M777 412L900 388L780 291Z" fill="#197f2f" stroke="#197f2f"></path><path d="M784 206L817 116L736 174Z" fill="#274a30" stroke="#274a30"></path><path d="M900 388L900 302L780 291Z" fill="#07a023" stroke="#07a023"></path><path d="M161 432L183 470L262 387Z" fill="#216932" stroke="#216932"></path><path d="M262 387L183 470L320 502Z" fill="#0e9529" stroke="#0e9529"></path><path d="M900 195L817 116L784 206Z" fill="#1d7431" stroke="#1d7431"></path><path d="M296 163L226 171L235 292Z" fill="#02ab1b" stroke="#02ab1b"></path><path d="M235 292L161 432L262 387Z" fill="#235f32" stroke="#235f32"></path><path d="M227 85L226 171L296 163Z" fill="#148a2d" stroke="#148a2d"></path><path d="M900 600L900 492L766 518Z" fill="#197f2f" stroke="#197f2f"></path><path d="M710 0L594 0L696 61Z" fill="#148a2d" stroke="#148a2d"></path><path d="M696 61L594 0L639 119Z" fill="#07a023" stroke="#07a023"></path><path d="M480 77L412 0L381 138Z" fill="#28402e" stroke="#28402e"></path><path d="M594 0L477 0L480 77Z" fill="#197f2f" stroke="#197f2f"></path><path d="M412 0L296 83L381 138Z" fill="#255431" stroke="#255431"></path><path d="M131 269L161 432L235 292Z" fill="#274a30" stroke="#274a30"></path><path d="M477 0L412 0L480 77Z" fill="#216932" stroke="#216932"></path><path d="M900 302L900 195L784 206Z" fill="#274a30" stroke="#274a30"></path><path d="M799 0L710 0L696 61Z" fill="#274a30" stroke="#274a30"></path><path d="M799 0L696 61L817 116Z" fill="#02ab1b" stroke="#02ab1b"></path><path d="M766 600L900 600L766 518Z" fill="#07a023" stroke="#07a023"></path><path d="M78 173L131 269L226 171Z" fill="#197f2f" stroke="#197f2f"></path><path d="M226 171L131 269L235 292Z" fill="#0e9529" stroke="#0e9529"></path><path d="M263 0L227 85L296 83Z" fill="#02ab1b" stroke="#02ab1b"></path><path d="M296 83L227 85L296 163Z" fill="#274a30" stroke="#274a30"></path><path d="M74 376L135 507L161 432Z" fill="#07a023" stroke="#07a023"></path><path d="M161 432L135 507L183 470Z" fill="#274a30" stroke="#274a30"></path><path d="M183 470L167 600L320 502Z" fill="#235f32" stroke="#235f32"></path><path d="M135 507L167 600L183 470Z" fill="#0e9529" stroke="#0e9529"></path><path d="M900 195L900 117L817 116Z" fill="#216932" stroke="#216932"></path><path d="M900 0L799 0L817 116Z" fill="#274a30" stroke="#274a30"></path><path d="M412 0L263 0L296 83Z" fill="#235f32" stroke="#235f32"></path><path d="M124 80L78 173L226 171Z" fill="#28402e" stroke="#28402e"></path><path d="M131 269L74 376L161 432Z" fill="#235f32" stroke="#235f32"></path><path d="M135 507L118 600L167 600Z" fill="#216932" stroke="#216932"></path><path d="M0 331L74 376L131 269Z" fill="#1d7431" stroke="#1d7431"></path><path d="M0 600L118 600L135 507Z" fill="#1d7431" stroke="#1d7431"></path><path d="M124 80L226 171L227 85Z" fill="#07a023" stroke="#07a023"></path><path d="M263 0L196 0L227 85Z" fill="#02ab1b" stroke="#02ab1b"></path><path d="M196 0L124 80L227 85Z" fill="#216932" stroke="#216932"></path><path d="M900 117L900 0L817 116Z" fill="#235f32" stroke="#235f32"></path><path d="M78 173L0 331L131 269Z" fill="#255431" stroke="#255431"></path><path d="M74 376L0 479L135 507Z" fill="#274a30" stroke="#274a30"></path><path d="M0 331L0 426L74 376Z" fill="#07a023" stroke="#07a023"></path><path d="M0 426L0 479L74 376Z" fill="#274a30" stroke="#274a30"></path><path d="M78 173L0 175L0 331Z" fill="#197f2f" stroke="#197f2f"></path><path d="M0 104L0 175L78 173Z" fill="#197f2f" stroke="#197f2f"></path><path d="M0 104L78 173L124 80Z" fill="#02ab1b" stroke="#02ab1b"></path><path d="M196 0L94 0L124 80Z" fill="#1d7431" stroke="#1d7431"></path><path d="M0 479L0 600L135 507Z" fill="#1d7431" stroke="#1d7431"></path><path d="M94 0L0 104L124 80Z" fill="#255431" stroke="#255431"></path><path d="M94 0L0 0L0 104Z" fill="#07a023" stroke="#07a023"></path></g></svg>